<svg width="82" height="220" viewBox="0 0 82 220" fill="none" xmlns="http://www.w3.org/2000/svg">
<circle cx="41" cy="179" r="39.5" stroke="#E9E7EC" stroke-width="3"/>
<line x1="40.5" y1="138" x2="40.5" y2="2.18557e-08" stroke="#E9E7EC"/>
<path d="M36.3391 188.288C34.9631 188.288 33.7311 187.952 32.6431 187.28C31.5551 186.592 30.6991 185.6 30.0751 184.304C29.4511 183.008 29.1391 181.44 29.1391 179.6C29.1391 177.76 29.4511 176.192 30.0751 174.896C30.6991 173.6 31.5551 172.616 32.6431 171.944C33.7311 171.256 34.9631 170.912 36.3391 170.912C37.7311 170.912 38.9631 171.256 40.0351 171.944C41.1231 172.616 41.9791 173.6 42.6031 174.896C43.2271 176.192 43.5391 177.76 43.5391 179.6C43.5391 181.44 43.2271 183.008 42.6031 184.304C41.9791 185.6 41.1231 186.592 40.0351 187.28C38.9631 187.952 37.7311 188.288 36.3391 188.288ZM36.3391 185C36.9951 185 37.5631 184.816 38.0431 184.448C38.5391 184.08 38.9231 183.496 39.1951 182.696C39.4831 181.896 39.6271 180.864 39.6271 179.6C39.6271 178.336 39.4831 177.304 39.1951 176.504C38.9231 175.704 38.5391 175.12 38.0431 174.752C37.5631 174.384 36.9951 174.2 36.3391 174.2C35.6991 174.2 35.1311 174.384 34.6351 174.752C34.1551 175.12 33.7711 175.704 33.4831 176.504C33.2111 177.304 33.0751 178.336 33.0751 179.6C33.0751 180.864 33.2111 181.896 33.4831 182.696C33.7711 183.496 34.1551 184.08 34.6351 184.448C35.1311 184.816 35.6991 185 36.3391 185ZM47.9264 188V172.64L49.6064 174.32H44.5664V171.2H51.8144V188H47.9264Z" fill="#9D9AA0"/>
</svg>
