<svg width="150" height="48" viewBox="0 0 150 48" fill="none" xmlns="http://www.w3.org/2000/svg">
<circle cx="28.6287" cy="12" r="10" fill="#8360B2"/>
<circle cx="10" cy="33.4198" r="10" fill="#4D95A8"/>
<path d="M52.4148 39V17.1818H58.1818V21.0312H58.4375C58.892 19.7528 59.6496 18.7443 60.7102 18.0057C61.7708 17.267 63.0398 16.8977 64.517 16.8977C66.0133 16.8977 67.2869 17.2718 68.3381 18.0199C69.3892 18.7585 70.09 19.7623 70.4403 21.0312H70.6676C71.1127 19.7812 71.9176 18.7822 73.0824 18.0341C74.2566 17.2765 75.6439 16.8977 77.2443 16.8977C79.2803 16.8977 80.9328 17.5464 82.2017 18.8438C83.4801 20.1316 84.1193 21.9593 84.1193 24.3267V39H78.0824V25.5199C78.0824 24.3078 77.7604 23.3987 77.1165 22.7926C76.4725 22.1866 75.6676 21.8835 74.7017 21.8835C73.6032 21.8835 72.7462 22.2339 72.1307 22.9347C71.5152 23.6259 71.2074 24.5398 71.2074 25.6761V39H65.3409V25.392C65.3409 24.322 65.0331 23.4697 64.4176 22.8352C63.8116 22.2008 63.0114 21.8835 62.017 21.8835C61.3447 21.8835 60.7386 22.054 60.1989 22.3949C59.6686 22.7263 59.2472 23.1951 58.9347 23.8011C58.6222 24.3977 58.4659 25.0985 58.4659 25.9034V39H52.4148ZM98.8423 39.4261C96.598 39.4261 94.6662 38.9716 93.0469 38.0625C91.437 37.1439 90.1965 35.8466 89.3253 34.1705C88.4541 32.4848 88.0185 30.4915 88.0185 28.1903C88.0185 25.946 88.4541 23.9763 89.3253 22.2812C90.1965 20.5862 91.4228 19.2652 93.0043 18.3182C94.5952 17.3712 96.4607 16.8977 98.6009 16.8977C100.04 16.8977 101.38 17.1297 102.621 17.5938C103.871 18.0483 104.96 18.7348 105.888 19.6534C106.825 20.572 107.554 21.7273 108.075 23.1193C108.596 24.5019 108.857 26.1212 108.857 27.9773V29.6392H90.4332V25.8892H103.161C103.161 25.018 102.971 24.2462 102.592 23.5739C102.214 22.9015 101.688 22.3759 101.016 21.9972C100.353 21.6089 99.581 21.4148 98.7003 21.4148C97.7817 21.4148 96.9673 21.6278 96.2571 22.054C95.5563 22.4706 95.0071 23.0341 94.6094 23.7443C94.2116 24.4451 94.008 25.2263 93.9986 26.0881V29.6534C93.9986 30.733 94.1974 31.6657 94.5952 32.4517C95.0024 33.2377 95.5753 33.8438 96.3139 34.2699C97.0526 34.696 97.9285 34.9091 98.9418 34.9091C99.6141 34.9091 100.23 34.8144 100.788 34.625C101.347 34.4356 101.825 34.1515 102.223 33.7727C102.621 33.3939 102.924 32.9299 103.132 32.3807L108.729 32.75C108.445 34.0947 107.862 35.2689 106.982 36.2727C106.11 37.267 104.983 38.0436 103.601 38.6023C102.228 39.1515 100.642 39.4261 98.8423 39.4261ZM122.749 39.4261C120.504 39.4261 118.572 38.9716 116.953 38.0625C115.343 37.1439 114.103 35.8466 113.232 34.1705C112.36 32.4848 111.925 30.4915 111.925 28.1903C111.925 25.946 112.36 23.9763 113.232 22.2812C114.103 20.5862 115.329 19.2652 116.911 18.3182C118.501 17.3712 120.367 16.8977 122.507 16.8977C123.946 16.8977 125.286 17.1297 126.527 17.5938C127.777 18.0483 128.866 18.7348 129.794 19.6534C130.732 20.572 131.461 21.7273 131.982 23.1193C132.502 24.5019 132.763 26.1212 132.763 27.9773V29.6392H114.339V25.8892H127.067C127.067 25.018 126.877 24.2462 126.499 23.5739C126.12 22.9015 125.594 22.3759 124.922 21.9972C124.259 21.6089 123.487 21.4148 122.607 21.4148C121.688 21.4148 120.874 21.6278 120.163 22.054C119.463 22.4706 118.913 23.0341 118.516 23.7443C118.118 24.4451 117.914 25.2263 117.905 26.0881V29.6534C117.905 30.733 118.104 31.6657 118.501 32.4517C118.909 33.2377 119.482 33.8438 120.22 34.2699C120.959 34.696 121.835 34.9091 122.848 34.9091C123.52 34.9091 124.136 34.8144 124.695 34.625C125.253 34.4356 125.732 34.1515 126.129 33.7727C126.527 33.3939 126.83 32.9299 127.038 32.3807L132.635 32.75C132.351 34.0947 131.768 35.2689 130.888 36.2727C130.017 37.267 128.89 38.0436 127.507 38.6023C126.134 39.1515 124.548 39.4261 122.749 39.4261ZM148.317 17.1818V21.7273H135.178V17.1818H148.317ZM138.161 11.9545H144.212V32.2955C144.212 32.8542 144.297 33.2898 144.467 33.6023C144.638 33.9053 144.875 34.1184 145.178 34.2415C145.49 34.3646 145.85 34.4261 146.257 34.4261C146.541 34.4261 146.825 34.4025 147.109 34.3551C147.393 34.2983 147.611 34.2557 147.763 34.2273L148.714 38.7301C148.411 38.8248 147.985 38.9337 147.436 39.0568C146.887 39.1894 146.219 39.2699 145.433 39.2983C143.975 39.3551 142.696 39.161 141.598 38.7159C140.509 38.2708 139.661 37.5795 139.055 36.642C138.449 35.7045 138.151 34.5208 138.161 33.0909V11.9545Z" fill="#2A283E"/>
</svg>
