<svg width="82" height="220" viewBox="0 0 82 220" fill="none" xmlns="http://www.w3.org/2000/svg">
<circle cx="41" cy="179" r="39.5" fill="white" stroke="#E9E7EC" stroke-width="3"/>
<line x1="40.5" y1="138" x2="40.5" y2="2.18557e-08" stroke="#E9E7EC"/>
<path d="M34.4602 188.288C33.0842 188.288 31.8522 187.952 30.7642 187.28C29.6762 186.592 28.8202 185.6 28.1962 184.304C27.5722 183.008 27.2602 181.44 27.2602 179.6C27.2602 177.76 27.5722 176.192 28.1962 174.896C28.8202 173.6 29.6762 172.616 30.7642 171.944C31.8522 171.256 33.0842 170.912 34.4602 170.912C35.8522 170.912 37.0842 171.256 38.1562 171.944C39.2442 172.616 40.1002 173.6 40.7242 174.896C41.3482 176.192 41.6602 177.76 41.6602 179.6C41.6602 181.44 41.3482 183.008 40.7242 184.304C40.1002 185.6 39.2442 186.592 38.1562 187.28C37.0842 187.952 35.8522 188.288 34.4602 188.288ZM34.4602 185C35.1162 185 35.6842 184.816 36.1642 184.448C36.6602 184.08 37.0442 183.496 37.3162 182.696C37.6042 181.896 37.7482 180.864 37.7482 179.6C37.7482 178.336 37.6042 177.304 37.3162 176.504C37.0442 175.704 36.6602 175.12 36.1642 174.752C35.6842 174.384 35.1162 174.2 34.4602 174.2C33.8202 174.2 33.2522 174.384 32.7562 174.752C32.2762 175.12 31.8922 175.704 31.6042 176.504C31.3322 177.304 31.1962 178.336 31.1962 179.6C31.1962 180.864 31.3322 181.896 31.6042 182.696C31.8922 183.496 32.2762 184.08 32.7562 184.448C33.2522 184.816 33.8202 185 34.4602 185ZM43.3115 188V185.48L49.7915 179.36C50.3035 178.896 50.6795 178.48 50.9195 178.112C51.1595 177.744 51.3195 177.408 51.3995 177.104C51.4955 176.8 51.5435 176.52 51.5435 176.264C51.5435 175.592 51.3115 175.08 50.8475 174.728C50.3995 174.36 49.7355 174.176 48.8555 174.176C48.1515 174.176 47.4955 174.312 46.8875 174.584C46.2955 174.856 45.7915 175.28 45.3755 175.856L42.5435 174.032C43.1835 173.072 44.0795 172.312 45.2315 171.752C46.3835 171.192 47.7115 170.912 49.2155 170.912C50.4635 170.912 51.5515 171.12 52.4795 171.536C53.4235 171.936 54.1515 172.504 54.6635 173.24C55.1915 173.976 55.4555 174.856 55.4555 175.88C55.4555 176.424 55.3835 176.968 55.2395 177.512C55.1115 178.04 54.8395 178.6 54.4235 179.192C54.0235 179.784 53.4315 180.448 52.6475 181.184L47.2715 186.248L46.5275 184.832H56.0075V188H43.3115Z" fill="#9D9AA0"/>
</svg>
